<svg width="108" height="17" viewBox="0 0 108 17" fill="none" xmlns="http://www.w3.org/2000/svg">
<path d="M13.0765 9.14228L9.32402 15.569L5.57158 9.14228H13.0765ZM14.0818 8.56787H4.56226L9.32402 16.7058L14.0818 8.56787Z" fill="#263238"/>
<path d="M19.6007 1.14878L23.3531 7.57551H15.8482L19.6007 1.14878ZM19.6007 0L14.8389 8.13785H24.3624L19.6007 0Z" fill="#263238"/>
<path d="M0 0L3.99259 7.19795L8.35551 0.180742L0 0Z" fill="#4CAF4F"/>
<path d="M9.32425 0.630615L13.5122 7.7884H5.12817L9.32425 0.630615Z" fill="#4CAF4F"/>
<path d="M14.5906 9.35107L18.7827 16.7057H10.1992L14.4604 9.35107H14.5906Z" fill="#4CAF4F"/>
<path d="M15.4983 8.90527L19.6007 16.1474L23.7602 8.90527H15.4983Z" fill="#4CAF4F"/>
<path d="M41.7868 1.16187V15.3364H39.1983L33.0316 6.41501H32.9278V15.3364H29.9309V1.16187H32.5609L38.6792 10.0763H38.8038V1.16187H41.7868Z" fill="#263238"/>
<path d="M49.0523 15.544C47.9588 15.544 47.0175 15.3225 46.2285 14.8796C45.4441 14.432 44.8396 13.7999 44.4151 12.9832C43.9906 12.1619 43.7784 11.1906 43.7784 10.0694C43.7784 8.97584 43.9906 8.01611 44.4151 7.19018C44.8396 6.36426 45.4372 5.72059 46.2077 5.25918C46.9829 4.79777 47.8919 4.56707 48.9346 4.56707C49.636 4.56707 50.2889 4.68011 50.8933 4.90621C51.5024 5.12768 52.033 5.4622 52.4852 5.90977C52.942 6.35734 53.2973 6.92026 53.551 7.59853C53.8048 8.27219 53.9317 9.0612 53.9317 9.96556V10.7753H44.955V8.94815H51.1563C51.1563 8.52366 51.0641 8.14761 50.8795 7.82001C50.6949 7.49241 50.4388 7.23632 50.1112 7.05176C49.7883 6.86258 49.4122 6.76799 48.9831 6.76799C48.5355 6.76799 48.1387 6.87181 47.7927 7.07944C47.4512 7.28246 47.1836 7.557 46.9898 7.90306C46.796 8.2445 46.6968 8.62517 46.6922 9.04505V10.7823C46.6922 11.3083 46.7891 11.7628 46.9829 12.1457C47.1813 12.5287 47.4604 12.824 47.8203 13.0316C48.1802 13.2393 48.607 13.3431 49.1008 13.3431C49.4284 13.3431 49.7283 13.2969 50.0005 13.2047C50.2727 13.1124 50.5057 12.974 50.6995 12.7894C50.8933 12.6048 51.041 12.3787 51.1425 12.1111L53.8694 12.2911C53.731 12.9463 53.4472 13.5184 53.0181 14.0075C52.5936 14.492 52.0445 14.8703 51.3709 15.1426C50.7018 15.4102 49.929 15.544 49.0523 15.544Z" fill="#263238"/>
<path d="M58.1294 4.70549L60.0811 8.42215L62.0814 4.70549H65.1059L62.026 10.0209L65.189 15.3364H62.1783L60.0811 11.6612L58.0186 15.3364H54.9733L58.1294 10.0209L55.0841 4.70549H58.1294Z" fill="#263238"/>
<path d="M71.2796 15.544C70.1906 15.544 69.254 15.3133 68.4696 14.8519C67.6898 14.3859 67.09 13.7399 66.6701 12.914C66.2548 12.088 66.0472 11.1375 66.0472 10.0625C66.0472 8.97353 66.2571 8.01841 66.677 7.1971C67.1015 6.37118 67.7036 5.72751 68.4834 5.2661C69.2632 4.80008 70.1906 4.56707 71.2657 4.56707C72.1932 4.56707 73.0052 4.73548 73.702 5.07231C74.3987 5.40914 74.9501 5.88209 75.3561 6.49115C75.7622 7.10021 75.9859 7.81539 76.0275 8.6367H73.2452C73.1667 8.10608 72.9591 7.67928 72.6223 7.35629C72.29 7.02869 71.854 6.86489 71.3142 6.86489C70.8574 6.86489 70.4583 6.98947 70.1168 7.23863C69.78 7.48318 69.517 7.84077 69.3278 8.31141C69.1386 8.78205 69.044 9.35189 69.044 10.0209C69.044 10.6992 69.1363 11.276 69.3209 11.7512C69.5101 12.2265 69.7754 12.5887 70.1168 12.8378C70.4583 13.087 70.8574 13.2116 71.3142 13.2116C71.651 13.2116 71.9532 13.1424 72.2208 13.0039C72.4931 12.8655 72.7169 12.6648 72.8922 12.4018C73.0721 12.1342 73.1898 11.8135 73.2452 11.4398H76.0275C75.9813 12.2518 75.7598 12.967 75.363 13.5853C74.9708 14.199 74.4287 14.6789 73.7366 15.0249C73.0445 15.371 72.2255 15.544 71.2796 15.544Z" fill="#263238"/>
<path d="M82.76 15.544C81.6665 15.544 80.7252 15.3225 79.9362 14.8796C79.1518 14.432 78.5473 13.7999 78.1228 12.9832C77.6983 12.1619 77.4861 11.1906 77.4861 10.0694C77.4861 8.97584 77.6983 8.01611 78.1228 7.19018C78.5473 6.36426 79.1449 5.72059 79.9154 5.25918C80.6906 4.79777 81.5996 4.56707 82.6423 4.56707C83.3437 4.56707 83.9966 4.68011 84.601 4.90621C85.2101 5.12768 85.7407 5.4622 86.1929 5.90977C86.6497 6.35734 87.005 6.92026 87.2588 7.59853C87.5125 8.27219 87.6394 9.0612 87.6394 9.96556V10.7753H78.6627V8.94815H84.864C84.864 8.52366 84.7718 8.14761 84.5872 7.82001C84.4026 7.49241 84.1465 7.23632 83.8189 7.05176C83.496 6.86258 83.1199 6.76799 82.6908 6.76799C82.2432 6.76799 81.8464 6.87181 81.5004 7.07944C81.1589 7.28246 80.8913 7.557 80.6975 7.90306C80.5037 8.2445 80.4045 8.62517 80.3999 9.04505V10.7823C80.3999 11.3083 80.4968 11.7628 80.6906 12.1457C80.889 12.5287 81.1681 12.824 81.528 13.0316C81.8879 13.2393 82.3147 13.3431 82.8085 13.3431C83.1361 13.3431 83.436 13.2969 83.7082 13.2047C83.9804 13.1124 84.2134 12.974 84.4072 12.7894C84.601 12.6048 84.7487 12.3787 84.8502 12.1111L87.5771 12.2911C87.4387 12.9463 87.1549 13.5184 86.7258 14.0075C86.3013 14.492 85.7523 14.8703 85.0786 15.1426C84.4095 15.4102 83.6367 15.544 82.76 15.544Z" fill="#263238"/>
<path d="M92.5119 9.19039V15.3364H89.5635V4.70549H92.3735V6.58112H92.4981C92.7334 5.96283 93.1279 5.47374 93.6816 5.11384C94.2353 4.74933 94.9066 4.56707 95.6956 4.56707C96.4339 4.56707 97.0776 4.72856 97.6266 5.05155C98.1757 5.37454 98.6025 5.83595 98.907 6.43578C99.2116 7.031 99.3638 7.74157 99.3638 8.56749V15.3364H96.4154V9.0935C96.42 8.44291 96.2539 7.93536 95.9171 7.57085C95.5803 7.20172 95.1166 7.01716 94.526 7.01716C94.1291 7.01716 93.7785 7.10252 93.4739 7.27324C93.174 7.44396 92.9387 7.69312 92.768 8.02072C92.6019 8.34371 92.5165 8.7336 92.5119 9.19039Z" fill="#263238"/>
<path d="M107.342 4.70549V6.92026H100.94V4.70549H107.342ZM102.394 2.15851H105.342V12.0696C105.342 12.3418 105.383 12.5541 105.467 12.7063C105.55 12.854 105.665 12.9578 105.813 13.0178C105.965 13.0778 106.14 13.1078 106.339 13.1078C106.477 13.1078 106.615 13.0962 106.754 13.0732C106.892 13.0455 106.998 13.0247 107.072 13.0109L107.536 15.2049C107.388 15.251 107.181 15.3041 106.913 15.3641C106.645 15.4287 106.32 15.4679 105.937 15.4817C105.227 15.5094 104.604 15.4148 104.068 15.1979C103.538 14.9811 103.125 14.6443 102.83 14.1875C102.534 13.7307 102.389 13.1539 102.394 12.4572V2.15851Z" fill="#263238"/>
</svg>
