<svg width="34" height="34" viewBox="0 0 34 34" fill="none" xmlns="http://www.w3.org/2000/svg">
<g clip-path="url(#clip0_211_2046)">
<path fill-rule="evenodd" clip-rule="evenodd" d="M9.74512 2.78418C13.5894 2.78418 16.7058 5.90059 16.7058 9.74487V2.78418H23.6665C27.5108 2.78418 30.6272 5.90059 30.6272 9.74487C30.6272 13.5891 27.5108 16.7056 23.6665 16.7056C27.5108 16.7056 30.6272 19.822 30.6272 23.6663C30.6272 25.5751 29.8588 27.3045 28.6145 28.562L28.5885 28.5882L28.5654 28.6112C27.3076 29.8573 25.5769 30.627 23.6665 30.627C21.7691 30.627 20.049 29.8678 18.7933 28.6365C18.777 28.6205 18.7607 28.6044 18.7445 28.5882C18.7293 28.573 18.7141 28.5577 18.699 28.5423C17.4662 27.2865 16.7058 25.5651 16.7058 23.6663C16.7058 27.5105 13.5894 30.627 9.74512 30.627C5.90083 30.627 2.78442 27.5105 2.78442 23.6663V16.7056H9.74512C5.90083 16.7056 2.78442 13.5891 2.78442 9.74487C2.78442 5.90059 5.90083 2.78418 9.74512 2.78418ZM15.3137 9.74487C15.3137 12.8203 12.8206 15.3134 9.74512 15.3134V4.17632C12.8206 4.17632 15.3137 6.66944 15.3137 9.74487ZM29.2351 23.6663C29.2351 20.5908 26.742 18.0977 23.6665 18.0977C20.5911 18.0977 18.098 20.5908 18.098 23.6663H29.2351ZM4.17656 18.0977V23.6663C4.17656 26.7417 6.66969 29.2348 9.74512 29.2348C12.8206 29.2348 15.3137 26.7417 15.3137 23.6663V18.0977H4.17656ZM18.098 15.3134V4.17632H23.6665C26.742 4.17632 29.2351 6.66944 29.2351 9.74487C29.2351 12.8203 26.742 15.3134 23.6665 15.3134H18.098Z" fill="#263238"/>
</g>
<defs>
<clipPath id="clip0_211_2046">
<rect width="27.8428" height="27.8428" fill="white" transform="translate(2.78442 2.78418)"/>
</clipPath>
</defs>
</svg>
